<?xml version="1.0" standalone="no"?>
<!DOCTYPE svg PUBLIC "-//W3C//DTD SVG 20010904//EN"
 "http://www.w3.org/TR/2001/REC-SVG-20010904/DTD/svg10.dtd">
<svg version="1.0" xmlns="http://www.w3.org/2000/svg"
 width="48.000000pt" height="48.000000pt" viewBox="0 0 48.000000 48.000000"
 preserveAspectRatio="xMidYMid meet">

<g transform="translate(0.000000,48.000000) scale(0.100000,-0.100000)"
fill="#000000" stroke="none">
<path d="M166 458 c-26 -10 -28 -13 -22 -49 20 -125 19 -122 5 -117 -8 2 -18
26 -23 51 -5 26 -13 47 -18 47 -14 0 -48 -81 -48 -114 0 -16 -8 -38 -17 -48
-29 -32 -1 -38 197 -38 198 0 226 6 197 38 -9 10 -17 32 -17 48 0 33 -34 114
-48 114 -5 0 -13 -21 -18 -47 -5 -25 -15 -49 -23 -51 -14 -5 -15 -7 5 117 6
36 5 39 -26 50 -40 13 -105 13 -144 -1z"/>
<path d="M296 140 c-11 -60 -97 -64 -112 -5 -5 21 -12 25 -45 25 -34 0 -39 -3
-39 -23 0 -14 9 -26 23 -32 14 -7 22 -19 22 -35 0 -34 46 -60 75 -42 16 10 24
10 40 0 28 -18 76 9 73 40 -2 14 6 28 22 38 15 10 25 26 25 40 0 21 -5 24 -39
24 -35 0 -39 -3 -45 -30z"/>
</g>
</svg>
