<?xml version="1.0" standalone="no"?>
<!DOCTYPE svg PUBLIC "-//W3C//DTD SVG 20010904//EN"
 "http://www.w3.org/TR/2001/REC-SVG-20010904/DTD/svg10.dtd">
<svg version="1.0" xmlns="http://www.w3.org/2000/svg"
 width="48.000000pt" height="48.000000pt" viewBox="0 0 48.000000 48.000000"
 preserveAspectRatio="xMidYMid meet">

<g transform="translate(0.000000,48.000000) scale(0.100000,-0.100000)"
fill="#000000" stroke="none">
<path d="M90 382 c0 -70 -17 -112 -46 -112 -8 0 -14 -5 -14 -10 0 -7 35 -10
98 -8 l97 3 -1 45 c0 33 -9 60 -33 98 -29 46 -36 52 -67 52 l-34 0 0 -68z"/>
<path d="M289 398 c-24 -38 -33 -65 -33 -98 l-1 -45 98 -3 c62 -2 97 1 97 8 0
5 -4 10 -10 10 -5 0 -19 9 -30 20 -16 16 -20 33 -20 90 l0 70 -34 0 c-31 0
-38 -6 -67 -52z"/>
<path d="M30 189 c0 -26 3 -30 23 -27 14 2 23 11 25 26 3 20 9 22 68 22 62 0
64 -1 64 -26 0 -14 4 -23 10 -19 5 3 10 17 10 31 0 24 -1 24 -100 24 l-100 0
0 -31z"/>
<path d="M250 196 c0 -14 5 -28 10 -31 6 -4 10 5 10 19 0 25 2 26 64 26 59 0
65 -2 68 -22 2 -15 11 -24 26 -26 19 -3 22 1 22 27 l0 31 -100 0 c-99 0 -100
0 -100 -24z"/>
<path d="M100 166 c0 -33 13 -46 46 -46 31 0 34 3 34 30 0 28 -2 30 -40 30
-28 0 -40 -4 -40 -14z"/>
<path d="M300 150 c0 -27 3 -30 34 -30 33 0 46 13 46 46 0 10 -12 14 -40 14
-38 0 -40 -2 -40 -30z"/>
<path d="M30 80 l0 -50 88 0 c100 0 112 7 112 62 0 42 -9 48 -28 18 -17 -28
-97 -28 -114 0 -7 11 -23 20 -35 20 -21 0 -23 -5 -23 -50z"/>
<path d="M250 92 c0 -55 12 -62 112 -62 l88 0 0 50 c0 45 -2 50 -23 50 -12 0
-28 -9 -35 -20 -9 -15 -23 -20 -57 -20 -34 0 -48 5 -57 20 -19 30 -28 24 -28
-18z"/>
</g>
</svg>
