<?xml version="1.0" standalone="no"?>
<!DOCTYPE svg PUBLIC "-//W3C//DTD SVG 20010904//EN"
 "http://www.w3.org/TR/2001/REC-SVG-20010904/DTD/svg10.dtd">
<svg version="1.0" xmlns="http://www.w3.org/2000/svg"
 width="48.000000pt" height="48.000000pt" viewBox="0 0 48.000000 48.000000"
 preserveAspectRatio="xMidYMid meet">

<g transform="translate(0.000000,48.000000) scale(0.100000,-0.100000)"
fill="#000000" stroke="none">
<path d="M281 462 c-46 -25 -73 -76 -68 -127 4 -38 1 -42 -51 -85 -128 -105
-152 -130 -152 -164 0 -42 35 -76 77 -76 33 0 60 26 163 152 42 52 47 55 81
50 67 -8 71 3 34 93 -19 44 -31 83 -27 86 4 4 29 14 55 24 48 18 48 18 29 38
-29 28 -99 33 -141 9z m23 -127 c-4 -8 -1 -15 6 -15 7 0 10 -7 6 -15 -3 -8 -1
-15 5 -15 17 0 1 -17 -21 -23 -17 -4 -20 -2 -15 14 4 11 3 19 -2 18 -20 -3
-25 2 -13 16 10 12 9 15 -6 16 -18 0 -18 1 1 9 31 13 45 12 39 -5z m-189 -245
c0 -18 -6 -26 -23 -28 -24 -4 -38 18 -28 44 3 9 15 14 28 12 17 -2 23 -10 23
-28z"/>
<path d="M430 346 c-26 -10 -34 -18 -32 -32 6 -31 32 -75 41 -69 14 8 41 71
41 94 0 24 -2 24 -50 7z"/>
</g>
</svg>
