<svg width="40" height="40" viewBox="0 0 40 40" fill="none" xmlns="http://www.w3.org/2000/svg">
<path d="M23.75 14.375L25.625 13.125L27.5 14.375V23.75L21.875 27.5V35L14.375 40L6.875 35V27.5L1.25 23.75V16.25L6.875 12.5V5L14.375 0V3.75L10.625 6.25V14.375L5 18.125V21.875L10.625 25.625V33.125L14.375 35.625L18.125 33.125V25.625L23.75 21.875V14.375Z" fill="#252733"/>
<path d="M16.25 27.5L14.375 28.75L12.5 27.5V16.25L18.125 12.5V5L25.625 0L33.125 5V12.5L38.75 16.25V23.75L33.125 27.5V35L25.625 40V36.25L29.375 33.75V25.625L35 21.875V18.125L29.375 14.375V6.875L25.625 4.375L21.875 6.875V14.375L16.25 18.125V27.5Z" fill="#3751FF"/>
</svg>
